# Alias OBJ Model File
# Exported from SketchUp, (c) 2000-2012 Trimble Navigation Limited
# File units = inches

mtllib Untitled.mtl

g Mesh1 Model

usemtl Limestone
v 89.7512 2.87636 -0
vt 0.33361 0.235149
vn 0 0 1
v 109.891 3.31331 -0
vt 1.77804 0.266487
v 89.7512 8.81386 -0
vt 0.33361 0.660983
f 1/1/1 2/2/1 3/3/1

v 115.141 3.31331 -0
vt 2.15457 0.266487
f 2/2/1 1/1/1 4/4/1

v 79.2748 -0.402364 -0
vt -0.417755 3.46945e-018
f 5/5/1 4/4/1 1/1/1

v 120.275 -0.402364 -0
vt 2.52275 3.46945e-018
f 6/6/1 4/4/1 5/5/1

v 120.275 51.0976 -0
vt 2.52275 3.69355
f 4/4/1 6/6/1 7/7/1

vt -0.239938 3.35624
vn 1 0 -0
vt -0.239938 -3.46945e-018
v 120.275 -0.402364 -40.875
vt 2.42387 -3.46945e-018
v 120.275 51.0976 -40.875
vt 2.42387 3.35624
f 7/8/2 6/9/2 8/10/2 9/11/2 

usemtl FrontColor
vt -120.275 0
vn 0 -1 -0
vt -79.2748 0
v 79.2748 -0.402364 -40.875
vt -79.2748 40.875
vt -120.275 40.875
f 6/12/3 5/13/3 10/14/3 8/15/3 

usemtl Limestone
vt 2.49371 0
vn -1 0 -0
v 79.2748 51.0976 -0
vt 2.49371 3.41869
v 79.2748 51.0976 -40.875
vt -0.219663 3.41869
vt -0.219663 0
f 5/16/4 11/17/4 12/18/4 10/19/4 

v 84.3137 2.87636 -0
vt -0.056365 0.235149
vt -0.417755 3.69355
f 5/5/1 13/20/1 11/21/1

f 13/20/1 5/5/1 1/1/1

vt -0.056365 0.0288574
vn 0 1 -0
vt 0.33361 0.0288574
v 89.7512 2.87636 -0.25
vt 0.33361 0.0467873
v 84.3137 2.87636 -0.25
vt -0.056365 0.0467873
f 13/22/5 1/23/5 14/24/5 15/25/5 

vt -6.1033 0.235149
vt -6.1033 0.660983
v 89.7512 8.81386 -0.25
vt -6.12123 0.660983
vt -6.12123 0.235149
f 1/26/4 3/27/4 16/28/4 14/29/4 

vt -12.5402 0.0288574
v 84.3137 8.81386 -0
vt -12.1502 0.0288574
v 84.3137 8.81386 -0.25
vt -12.1502 0.0467873
vt -12.5402 0.0467873
f 3/30/3 17/31/3 18/32/3 16/33/3 

v 109.891 8.93831 -0
vt 1.77804 0.669909
vt -0.056365 0.660983
f 3/3/1 19/34/1 17/35/1

f 3/3/1 2/2/1 19/34/1

vt -6.1033 0.669909
vt -6.1033 0.266487
v 109.891 3.31331 -0.25
vt -6.08537 0.266487
v 109.891 8.93831 -0.25
vt -6.08537 0.669909
f 19/36/2 2/37/2 20/38/2 21/39/2 

vt 1.77804 0.0288574
vt 2.15457 0.0288574
v 115.141 3.31331 -0.25
vt 2.15457 0.0467873
vt 1.77804 0.0467873
f 2/40/5 4/41/5 22/42/5 20/43/5 

v 115.141 8.93831 -0
v 115.141 8.93831 -0.25
vt -6.12123 0.669909
vt -6.12123 0.266487
f 4/37/4 23/36/4 24/44/4 22/45/4 

vt 2.15457 0.669909
f 4/4/1 7/7/1 23/46/1

f 23/46/1 7/7/1 19/34/1

f 11/21/1 19/34/1 7/7/1

f 11/21/1 17/35/1 19/34/1

f 11/21/1 13/20/1 17/35/1

vt -6.08537 0.235149
vt -6.08537 0.660983
f 17/27/2 13/26/2 15/47/2 18/48/2 

f 18/35/1 15/20/1 14/1/1 16/3/1 

vt -0.69452 -0.22681
vt 1.6245 -0.22681
vt 1.6245 2.08514
vt -0.69452 2.08514
f 11/49/5 7/50/5 9/51/5 12/52/5 

vt 2.31067 0
vn 0 0 -1
vt 2.31067 4.29902
vt -1.11186 4.29902
vt -1.11186 0
f 10/53/6 12/54/6 9/55/6 8/56/6 

v 120.275 -0.402364 -81.75
vt -3.8333 -0.446699
vt 3.00896 -0.446699
vt 3.00896 8.17413
v 120.275 51.1601 -40.875
vt 3.00896 8.1846
v 120.275 51.1601 -81.75
vt -3.8333 8.1846
f 25/57/4 8/58/4 9/59/4 26/60/4 27/61/4 

usemtl FrontColor
v 132.682 -0.402364 -40.875
vt -132.682 40.875
vt -120.275 81.75
v 161.275 -0.402364 -81.75
vt -161.275 81.75
v 161.275 -0.402364 -40.875
vt -161.275 40.875
v 146.941 -0.402364 -40.875
vt -146.941 40.875
v 146.941 -0.402364 -31.4375
vt -146.941 31.4375
v 145.336 -0.402364 -31.4375
vt -145.336 31.4375
v 145.336 -0.402364 -40.875
vt -145.336 40.875
v 142.787 -0.402364 -40.875
vt -142.787 40.875
v 142.787 -0.402364 -42.75
vt -142.787 42.75
v 137.013 -0.402364 -42.75
vt -137.013 42.75
v 137.013 -0.402364 -40.875
vt -137.013 40.875
v 134.461 -0.402364 -40.875
vt -134.461 40.875
v 134.461 -0.402364 -31.4375
vt -134.461 31.4375
v 132.682 -0.402364 -31.4375
vt -132.682 31.4375
f 28/62/3 8/15/3 25/63/3 29/64/3 30/65/3 31/66/3 32/67/3 33/68/3 34/69/3 35/70/3 36/71/3 37/72/3 38/73/3 39/74/3 40/75/3 41/76/3 

usemtl Limestone
vt -1.93113 0
v 127.56 3.01099 -40.875
vt -2.46729 0.357291
vt -3.22989 0
f 28/77/1 42/78/1 8/79/1

v 132.682 8.41014 -40.875
vt -1.93113 0.922445
f 42/78/1 28/77/1 43/80/1

vt -0.279823 1.0282
vt -0.279823 -0.465064
vt 1.31935 -0.465064
v 132.682 8.41014 -31.4375
vt 1.31935 1.0282
f 43/81/4 28/82/4 41/83/4 44/84/4 

vt -12.5146 -1.45654
vt -10.8408 -1.45654
v 134.461 7.03514 -31.4375
vt -10.8408 5.54346
v 145.336 7.03514 -31.4375
vt -0.605555 5.54346
vt -0.605555 -1.45654
vt 0.905552 -1.45654
v 146.941 8.41014 -31.4375
vt 0.905552 6.83758
vt -12.5146 6.83758
f 41/85/1 40/86/1 45/87/1 46/88/1 33/89/1 32/90/1 47/91/1 44/92/1 

vt 2.40034 -0.49654
v 134.461 7.03514 -40.875
vt 2.40034 1.76101
vt -0.464288 1.76101
vt -0.464288 -0.49654
f 39/93/2 48/94/2 45/95/2 40/96/2 

vt -1.66361 -0.708739
vt -0.618892 -0.708739
v 137.013 6.74243 -40.875
vt -0.618892 2.21562
v 142.787 6.74243 -40.875
vt 1.74426 2.21562
vt 1.74426 -0.708739
vt 2.78752 -0.708739
v 145.336 7.03514 -40.875
vt 2.78752 2.33542
vt -1.66361 2.33542
f 39/97/1 38/98/1 49/99/1 50/100/1 35/101/1 34/102/1 51/103/1 48/104/1 

vt -39.9681 2.21562
vt -39.9681 -0.708739
vt -39.2007 -0.708739
v 137.013 6.74243 -42.75
vt -39.2007 2.21562
f 49/105/2 38/106/2 37/107/2 52/108/2 

v 142.787 6.74243 -42.75
f 37/98/1 36/101/1 53/100/1 52/99/1 

vt -73.4283 -0.708739
vt -73.4283 2.21562
vt -74.1957 2.21562
vt -74.1957 -0.708739
f 35/109/4 50/110/4 53/111/4 36/112/4 

vt -115.141 16.186
vt -112.778 16.186
vt -112.778 16.9535
vt -115.141 16.9535
f 50/113/3 49/114/3 52/115/3 53/116/3 

vt -0.841765 2.47068
vt -0.841765 -0.355893
vt 2.7449 -0.355893
vt 2.7449 2.47068
f 51/117/4 34/118/4 33/119/4 46/120/4 

usemtl FrontColor
f 48/74/3 51/69/3 46/68/3 45/75/3 

usemtl Limestone
vt 1.89181 -0.791955
v 146.941 8.41014 -40.875
vt 1.89181 1.51302
vt -0.576638 1.51302
vt -0.576638 -0.791955
f 31/121/2 54/122/2 47/123/2 32/124/2 

vt -0.438586 0
v 151.105 2.06745 -40.875
vt -0.00274189 0.258527
vt -0.438586 0.922445
f 31/125/1 55/126/1 54/127/1

v 156.918 2.06745 -40.875
vt 0.605679 0.258527
f 55/126/1 31/125/1 56/128/1

vt 1.06177 0
f 30/129/1 56/128/1 31/125/1

v 161.275 50.6601 -40.875
vt 1.06177 5.34495
f 56/128/1 30/129/1 57/130/1

vt -4.20509 -0.399896
vt 2.54407 -0.399896
v 161.275 51.1601 -81.75
vt 2.54407 8.11395
v 161.275 51.1601 -40.875
vt -4.20509 8.11395
vt -4.20509 8.0314
f 30/131/2 29/132/2 58/133/2 59/134/2 57/135/2 

vt -1.34813 -0.222697
vt 5.36395 -0.222697
vt 5.36395 8.21855
vt -1.34813 8.21855
f 29/136/6 25/137/6 27/138/6 58/139/6 

vt -0.740652 -0.401568
vt 1.87952 -0.401568
vt 1.87952 2.21061
vt -0.740652 2.21061
f 26/140/5 59/141/5 58/142/5 27/143/5 

vt -3.22989 5.39074
vt 1.06177 5.39729
vt -3.22989 5.39729
f 9/144/1 59/145/1 26/146/1

f 9/144/1 57/130/1 59/145/1

v 122.56 8.44849 -40.875
vt -2.99067 0.926459
f 9/144/1 60/147/1 57/130/1

v 122.56 3.01099 -40.875
vt -2.99067 0.357291
f 9/144/1 61/148/1 60/147/1

f 8/79/1 61/148/1 9/144/1

f 61/148/1 8/79/1 42/78/1

vt -2.99067 4.32069
vt -2.46729 4.32069
v 127.56 3.01099 -41.1875
vt -2.46729 4.3534
v 122.56 3.01099 -41.1875
vt -2.99067 4.3534
f 61/149/5 42/150/5 62/151/5 63/152/5 

vt -20.0982 0.357291
v 127.56 8.44849 -40.875
vt -20.0982 0.926459
v 127.56 8.44849 -41.1875
vt -20.1309 0.926459
vt -20.1309 0.357291
f 42/153/4 64/154/4 65/155/4 62/156/4 

vt -2.46729 0.926459
f 42/78/1 43/80/1 64/157/1

f 43/80/1 57/130/1 64/157/1

f 54/127/1 57/130/1 43/80/1

v 151.105 8.19245 -40.875
vt -0.00274189 0.899659
f 66/158/1 57/130/1 54/127/1

v 156.918 8.19245 -40.875
vt 0.605679 0.899659
f 67/159/1 57/130/1 66/158/1

f 56/128/1 57/130/1 67/159/1

vt -20.0982 0.258527
vt -20.0982 0.899659
v 156.918 8.19245 -41.3125
vt -20.144 0.899659
v 156.918 2.06745 -41.3125
vt -20.144 0.258527
f 56/160/4 67/161/4 68/162/4 69/163/4 

vt -32.2449 4.32069
vt -31.6365 4.32069
v 151.105 8.19245 -41.3125
vt -31.6365 4.36649
vt -32.2449 4.36649
f 67/164/3 66/165/3 70/166/3 68/167/3 

vt -11.541 0.899659
vt -11.541 0.258527
v 151.105 2.06745 -41.3125
vt -11.4952 0.258527
vt -11.4952 0.899659
f 66/168/2 55/169/2 71/170/2 70/171/2 

f 54/127/1 55/126/1 66/158/1

vt -0.00274189 4.32069
vt 0.605679 4.32069
vt 0.605679 4.36649
vt -0.00274189 4.36649
f 55/172/5 56/173/5 69/174/5 71/175/5 

f 70/158/1 71/126/1 69/128/1 68/159/1 

vt 2.67661 2.08902
vt -0.479641 2.08902
vt -0.479641 -8.88178e-016
vt 2.67661 -8.88178e-016
f 54/176/5 43/177/5 44/178/5 47/179/5 

f 64/157/1 57/130/1 60/147/1

vt -29.1719 4.32069
vt -28.6485 4.32069
v 122.56 8.44849 -41.1875
vt -28.6485 4.3534
vt -29.1719 4.3534
f 64/180/3 60/181/3 72/182/3 65/183/3 

vt -11.541 0.926459
vt -11.541 0.357291
vt -11.5083 0.357291
vt -11.5083 0.926459
f 60/184/2 61/185/2 63/186/2 72/187/2 

f 65/157/1 72/147/1 63/148/1 62/78/1 

vt -1.19075 -3.46945e-018
v 161.275 -0.402364 -0.4375
vt 1.19075 -3.46945e-018
v 161.275 50.6601 -0.4375
vt 1.19075 3.00723
vt -1.19075 3.00723
f 30/188/4 73/189/4 74/190/4 57/191/4 

usemtl FrontColor
vt -161.275 0.4375
v 201.837 -0.402364 -40.875
vt -201.837 40.875
v 201.837 -0.402364 -0.4375
vt -201.837 0.4375
f 73/192/3 30/65/3 75/193/3 76/194/3 

usemtl Limestone
vt -1.03614 -0.151848
vt 3.03551 -0.151848
vt 3.03551 4.97379
v 201.837 50.6601 -40.875
vt -1.03614 4.97379
f 75/195/6 30/196/6 57/197/6 77/198/6 

vt -0.42866 2.07834
vt -0.42866 -0.221164
v 201.837 50.6601 -0.4375
vt 1.87795 -0.221164
vt 1.87795 2.07834
f 57/199/5 74/200/5 78/201/5 77/202/5 

vt 0 4.20204
v 192.154 8.30031 -0.4375
vt 2.54111 0.716161
vt 3.33797 4.20204
f 74/203/1 79/204/1 78/205/1

v 166.336 8.03565 -0.4375
vt 0.416496 0.694382
f 74/203/1 80/206/1 79/204/1

v 166.336 2.34815 -0.4375
vt 0.416496 0.226346
f 74/203/1 81/207/1 80/206/1

vt 0 0
f 73/208/1 81/207/1 74/203/1

v 172.023 2.34815 -0.4375
vt 0.884532 0.226346
f 81/207/1 73/208/1 82/209/1

v 197.029 3.11281 -0.4375
vt 2.94228 0.289271
f 73/208/1 83/210/1 82/209/1

vt 3.33797 0
f 76/211/1 83/210/1 73/208/1

f 83/210/1 76/211/1 78/205/1

vt -0.561976 -0.0626831
vt 3.36192 -0.0626831
vt 3.36192 4.89222
vt -0.561976 4.89222
f 76/212/2 75/213/2 77/214/2 78/215/2 

v 197.029 8.30031 -0.4375
vt 2.94228 0.716161
f 83/210/1 78/205/1 84/216/1

f 84/216/1 78/205/1 79/204/1

vt -29.4856 0.0691142
vt -29.0844 0.0691142
v 192.154 8.30031 -0.8125
vt -29.0844 0.0999737
v 197.029 8.30031 -0.8125
vt -29.4856 0.0999737
f 84/217/3 79/218/3 85/219/3 86/220/3 

vt -13.2356 0.716161
v 192.154 3.11281 -0.4375
vt -13.2356 0.289271
v 192.154 3.11281 -0.8125
vt -13.2048 0.289271
vt -13.2048 0.716161
f 79/221/2 87/222/2 88/223/2 85/224/2 

v 172.023 8.03565 -0.4375
vt 0.884532 0.694382
vt 2.54111 0.289271
f 89/225/1 87/226/1 79/204/1

f 82/209/1 87/226/1 89/225/1

f 87/226/1 82/209/1 83/210/1

vt 2.54111 0.0691142
vt 2.94228 0.0691142
v 197.029 3.11281 -0.8125
vt 2.94228 0.0999737
vt 2.54111 0.0999737
f 87/227/5 83/228/5 90/229/5 88/230/5 

vt -13.3076 0.289271
vt -13.3076 0.716161
vt -13.3385 0.716161
vt -13.3385 0.289271
f 83/231/4 84/232/4 86/233/4 90/234/4 

f 88/226/1 90/210/1 86/216/1 85/204/1 

vt -13.3076 0.226346
vt -13.3076 0.694382
v 172.023 8.03565 -0.625
vt -13.3231 0.694382
v 172.023 2.34815 -0.625
vt -13.3231 0.226346
f 82/235/4 89/236/4 91/237/4 92/238/4 

vt -27.4278 0.0691142
vt -26.9598 0.0691142
v 166.336 8.03565 -0.625
vt -26.9598 0.084544
vt -27.4278 0.084544
f 89/239/3 80/240/3 93/241/3 91/242/3 

f 89/225/1 79/204/1 80/206/1

vt -13.2356 0.694382
vt -13.2356 0.226346
v 166.336 2.34815 -0.625
vt -13.2202 0.226346
vt -13.2202 0.694382
f 80/243/2 81/244/2 94/245/2 93/246/2 

vt 0.416496 0.0691142
vt 0.884532 0.0691142
vt 0.884532 0.084544
vt 0.416496 0.084544
f 81/247/5 82/248/5 92/249/5 94/250/5 

f 92/209/1 91/225/1 93/206/1 94/207/1 

vt -14.3612 0.0288574
vt -13.9846 0.0288574
vt -13.9846 0.0467873
vt -14.3612 0.0467873
f 23/251/3 19/252/3 21/253/3 24/254/3 

f 24/46/1 21/34/1 20/2/1 22/4/1 

g Mesh2 Model

usemtl building_texture1
v 79.2748 10.2565 -0
v 120.263 10.2565 -0
vt 1 0
v 120.263 51.2443 -0
vt 1 1
v 79.2748 51.2443 -0
vt 0 1
f 95/208/1 96/255/1 97/256/1 98/257/1 

g Mesh3 Model

v 79.2748 10.2565 -40.8412
v 79.2748 51.0976 -40.8412
f 99/208/4 95/255/4 11/256/4 100/257/4 

g Mesh4 Model

v 120.275 10.2565 -0
v 120.275 10.2565 -40.875
v 120.275 51.1315 -40.875
v 120.275 51.1315 -0
f 101/208/2 102/255/2 103/256/2 104/257/2 

v 120.275 10.2565 -81.75
v 120.275 51.1315 -81.75
f 105/208/4 102/255/4 103/256/4 106/257/4 

g Mesh5 Model

v 79.2748 10.2565 -40.875
v 79.2748 51.2565 -40.875
v 120.275 51.2565 -40.875
f 102/208/6 107/255/6 108/256/6 109/257/6 

v 161.275 10.2565 -40.875
v 161.275 51.2565 -40.875
f 102/208/1 110/255/1 111/256/1 109/257/1 

g Mesh6 Model

v 161.275 10.2565 -81.7542
v 161.275 51.1357 -81.7542
v 161.275 51.1357 -40.875
f 110/208/2 112/255/2 113/256/2 114/257/2 

g Mesh7 Model

v 161.275 10.2565 -81.75
v 120.275 51.2565 -81.75
v 161.275 51.2565 -81.75
f 115/208/6 105/255/6 116/256/6 117/257/6 

g Mesh8 Model

v 161.275 10.2565 -0.4375
v 161.275 50.694 -0.4375
v 161.275 50.694 -40.875
f 110/208/4 118/255/4 119/256/4 120/257/4 

g Mesh9 Model

v 201.817 10.2565 -0.4375
v 201.817 50.7983 -0.4375
v 161.275 50.7983 -0.4375
f 118/208/1 121/255/1 122/256/1 123/257/1 

g Mesh10 Model

v 201.837 10.2565 -0.4375
v 201.837 10.2565 -40.875
v 201.837 50.694 -40.875
v 201.837 50.694 -0.4375
f 124/208/2 125/255/2 126/256/2 127/257/2 

g Mesh11 Model

v 161.275 50.819 -40.875
v 201.837 50.819 -40.875
f 125/208/6 110/255/6 128/256/6 129/257/6 

g Mesh12 Model

usemtl Doors
v 136.887 -0.402364 -42.75
v 142.787 7.04996 -42.75
v 136.887 7.04996 -42.75
f 130/208/1 36/255/1 131/256/1 132/257/1 

g Mesh13 Model

usemtl png_window_4_by_paradise234_d5i7f6m
v 150.867 1.14231 -41.3125
v 157.171 1.14231 -41.3125
v 157.171 9.02295 -41.3125
v 150.867 9.02295 -41.3125
f 133/208/1 134/255/1 135/256/1 136/257/1 

g Mesh14 Model

v 122.282 2.10527 -41.1875
v 127.891 2.10527 -41.1875
v 127.891 9.11732 -41.1875
v 122.282 9.11732 -41.1875
f 137/208/1 138/255/1 139/256/1 140/257/1 

g Mesh15 Model

v 166.336 1.53942 -0.625
v 172.265 1.53942 -0.625
v 172.265 8.95058 -0.625
v 166.336 8.95058 -0.625
f 141/208/1 142/255/1 143/256/1 144/257/1 

g Mesh16 Model

v 191.938 2.24792 -0.8125
v 197.34 2.24792 -0.8125
v 197.34 9.00036 -0.8125
v 191.938 9.00036 -0.8125
f 145/208/1 146/255/1 147/256/1 148/257/1 

g Mesh17 Model

v 83.965 2.03788 -0.25
v 90.1225 2.03788 -0.25
v 90.1225 9.73473 -0.25
v 83.965 9.73473 -0.25
f 149/208/1 150/255/1 151/256/1 152/257/1 

g Mesh18 Model

v 109.625 2.4657 -0.25
v 115.375 2.4657 -0.25
v 115.375 9.6532 -0.25
v 109.625 9.6532 -0.25
f 153/208/1 154/255/1 155/256/1 156/257/1 

